# AST/ASF file generated using VICON BodyLanguage
# -----------------------------------------------
:version 1.10
:name VICON
:units
  mass 1.0
  length 0.45
  angle deg
:documentation
   .ast/.asf automatically generated from VICON data using
   VICON BodyBuilder and BodyLanguage model FoxedUp or BRILLIANT.MOD
:root
   order TX TY TZ RX RY RZ
   axis XYZ
   position 0 0 0  
   orientation 0 0 0 
:bonedata
  begin
     id 1 
     name lhipjoint
     direction 0.61886 -0.69539 0.365302 
     length 2.20474 
     axis 0 0 0  XYZ
  end
  begin
     id 2 
     name lfemur
     direction 0.34202 -0.939693 0  
     length 6.65149  
     axis 0 0 20  XYZ
    dof rx ry rz
    limits (-160.0 20.0)
           (-70.0 70.0)
           (-60.0 70.0)
  end
  begin
     id 3 
     name ltibia
     direction 0.34202 -0.939693 0   
     length 6.35814   
     axis 0 0 20   XYZ
    dof rx
    limits (-10.0 170.0)
  end
  begin
     id 4 
     name lfoot
     direction 0.101224 -0.278109 0.955201   
     length 2.18766   
     axis -90 7.62852e-016 20   XYZ
    dof rx rz
    limits (-45.0 90.0)
           (-70.0 20.0)
  end
  begin
     id 5 
     name ltoes
     direction 1.53524e-011 -4.21877e-011 1   
     length 1.09206   
     axis -90 7.62852e-016 20   XYZ
    dof rx
    limits (-90.0 20.0)
  end
  begin
     id 6 
     name rhipjoint
     direction -0.600207 -0.708087 0.371972   
     length 2.1652  
     axis 0 0 0  XYZ 
  end
  begin
     id 7 
     name rfemur
     direction -0.34202 -0.939693 0   
     length 6.54691   
     axis 0 0 -20   XYZ
    dof rx ry rz
    limits (-160.0 20.0)
           (-70.0 70.0)
           (-70.0 60.0)
  end
  begin
     id 8 
     name rtibia
     direction -0.34202 -0.939693 0   
     length 6.37474   
     axis 0 0 -20   XYZ
    dof rx
    limits (-10.0 170.0)
 end
 begin
     id 9 
     name rfoot
     direction -0.111266 -0.3057 0.945604   
     length 2.00903  
     axis -90 -7.62852e-016 -20   XYZ
    dof rx rz
    limits (-45.0 90.0)
           (-20.0 70.0)
  end
  begin
     id 10 
     name rtoes
     direction -1.5362e-011 -4.21913e-011 1   
     length 1.00221   
     axis -90 -7.62852e-016 -20   XYZ
    dof rx
    limits (-90.0 20.0)
  end
  begin
     id 11 
     name lowerback
     direction -0.0224561 0.999731 -0.00577314   
     length 2.10409   
     axis 0 0 0   XYZ
    dof rx ry rz
    limits (-20.0 45.0)
           (-30.0 30.0)
           (-30.0 30.0)
  end
  begin
     id 12 
     name upperback
     direction 0.0213126 0.999185 -0.0342817   
     length 2.09783   
     axis 0 0 0   XYZ
    dof rx ry rz
    limits (-20.0 45.0)
           (-30.0 30.0)
           (-30.0 30.0)
  end
  begin
     id 13 
     name thorax
     direction 0.0312356 0.999036 -0.0308451   
     length 2.09788   
     axis 0 0 0   XYZ
    dof rx ry rz
    limits (-20.0 45.0)
           (-30.0 30.0)
           (-30.0 30.0)
  end
  begin
     id 14 
     name lowerneck
     direction -0.0114419 0.996481 0.0830329   
     length 1.38575   
     axis 0 0 0   XYZ
    dof rx ry rz
    limits (-20.0 45.0)
           (-30.0 30.0)
           (-30.0 30.0)
  end
  begin
     id 15 
     name upperneck
     direction -0.0075675 0.996187 -0.0869092   
     length 1.39401   
     axis 0 0 0   XYZ
    dof rx ry rz
    limits (-20.0 45.0)
           (-30.0 30.0)
           (-30.0 30.0)
  end
  begin
     id 16
     name head
     direction -0.00222073 0.999264 -0.0382974  
     length 1.3964  
     axis 0 0 0   XYZ
    dof rx ry rz
    limits (-20.0 45.0)
           (-30.0 30.0)
           (-30.0 30.0)
  end
  begin
     id 17 
     name lclavicle
     direction 0.965962 0.222138 0.132556  
     length 2.81514  
     axis 0 0 0   XYZ
    dof ry rz
    limits (-20.0 10.0)
           (0.0 20.0)
  end
  begin
     id 18 
     name lhumerus
     direction 1 -4.48972e-011 7.03471e-018   
     length 4.47366   
     axis 180 -30 -90   XYZ
    dof rx ry rz
    limits (-60.0 90.0)
           (-90.0 90.0)
           (-90.0 90.0)
  end
  begin
     id 19
     name lradius
     direction 1 -4.48951e-011 -6.22192e-028   
     length 3.19948   
     axis 180 -30 -90   XYZ
    dof rx
    limits (-10.0 170.0)
  end
  begin
     id 20
     name lwrist
     direction 1 -4.48967e-011 -1.24264e-027   
     length 1.59974   
     axis 1.40095e-015 90 90   XYZ
    dof ry
    limits (-180.0 0.0)
 end
  begin
     id 21 
     name lhand
     direction 1 -4.4897e-011 -2.48528e-027   
     length 0.492667   
     axis 1.58582e-015 90 90   XYZ
    dof rx rz
    limits (-90.0 90.0)
           (-45.0 45.0)
  end
  begin
     id 22 
     name lfingers
     direction 1 -4.48996e-011 -4.97056e-027   
     length 0.397201   
     axis 3.17164e-015 90 90   XYZ
    dof rx
    limits (0.0 90.0)
  end
  begin
     id 23
     name lthumb
     direction 0.707107 -6.34981e-011 0.707107   
     length 0.570303   
     axis -90 45 2.85299e-015   XYZ
    dof rx rz
    limits (-45.0 45.0)
           (-45.0 45.0)
  end
  begin
     id 24 
     name rclavicle
     direction -0.961164 0.229034 0.153972   
     length 3.09348  
     axis 0 0 0   XYZ 
    dof ry rz
    limits (-10.0 20.0)
           (-20.0 0.0)
  end
  begin
     id 25 
     name rhumerus
     direction -1 -4.48971e-011 -9.06263e-028  
     length 4.3269   
     axis 180 30 90   XYZ
    dof rx ry rz
    limits (-90.0 60.0)
           (-90.0 90.0)
           (-90.0 90.0)
  end
  begin
     id 26 
     name rradius
     direction -1 -4.48953e-011 1.44659e-027   
     length 3.1896   
     axis 180 30 90   XYZ
    dof rx
    limits (-10.0 170.0)
  end
  begin
     id 27 
     name rwrist
     direction -1 -4.48988e-011 -1.24264e-027   
     length 1.5948   
     axis 1.40095e-015 -90 -90   XYZ
    dof ry
    limits (-180.0 0.0)
  end
  begin
     id 28
     name rhand
     direction -1 -4.49033e-011 -2.48528e-027   
     length 0.464496   
     axis 1.58582e-015 -90 -90   XYZ
    dof rx rz
    limits (-90.0 90.0)
           (-45.0 45.0)
  end
  begin
     id 29
     name rfingers
     direction -1 -4.48905e-011 -4.97056e-027   
     length 0.374489   
     axis 3.17164e-015 -90 -90   XYZ
    dof rx
    limits (0.0 90.0)
  end
  begin
     id 30
     name rthumb
     direction -0.707107 -6.34909e-011 0.707107   
     length 0.537693   
     axis -90 -45 -2.85299e-015   XYZ
    dof rx rz
    limits (-45.0 45.0)
           (-45.0 45.0)
  end
:hierarchy
  begin
    root lhipjoint rhipjoint lowerback
    lhipjoint lfemur
    lfemur ltibia
    ltibia lfoot
    lfoot ltoes
    rhipjoint rfemur
    rfemur rtibia
    rtibia rfoot
    rfoot rtoes
    lowerback upperback
    upperback thorax
    thorax lowerneck lclavicle rclavicle
    lowerneck upperneck
    upperneck head
    lclavicle lhumerus
    lhumerus lradius
    lradius lwrist
    lwrist lhand lthumb
    lhand lfingers
    rclavicle rhumerus
    rhumerus rradius
    rradius rwrist
    rwrist rhand rthumb
    rhand rfingers
  end

#!OML:ASF G:\acrobat\cartwheel_test 2\Patient 1\Session 2\acrobat4.ASF
:FULLY-SPECIFIED
:DEGREES
145
root 13.3672 16.0392 4.39644 -37.7835 39.9315 -217.84
lowerback 22.3068 -0.710522 -15.2995
upperback 2.73851 -6.08218 -8.74352
thorax -8.94783 -2.72023 0.65677
lowerneck -10.9321 -1.46099 2.97936
upperneck -7.50399 -3.57636 -23.1652
head -0.714123 -2.31854 -7.77969
rclavicle 2.46493e-014 2.54444e-014
rhumerus 74.1852 -69.6129 -63.9697
rradius 29.3737
rwrist -1.60242
rhand -43.2204 99.2083
rfingers 7.12502
rthumb -16.0706 -231.438
lclavicle 2.46493e-014 2.54444e-014
lhumerus -26.2658 -9.54787 0.842599
lradius 37.1982
lwrist 31.1203
lhand -22.4232 12.2766
lfingers 7.12502
lthumb 4.00012 42.2188
rfemur -35.9792 -14.8162 3.95861
rtibia 32.679
rfoot 17.5274 -4.91851
rtoes -16.78
lfemur -152.665 44.8355 -112.27
ltibia -6.40337
lfoot -115.956 123.729
ltoes 12.5331
146
root 13.348 16.0691 4.37216 -38.4243 38.2036 -217.307
lowerback 22.9088 -0.474803 -14.3177
upperback 3.03579 -5.51705 -8.31034
thorax -9.02331 -2.45631 0.480912
lowerneck -10.9987 -1.3467 3.51623
upperneck -8.4088 -3.66692 -23.5305
head -0.981839 -2.34064 -8.00679
rclavicle 0 3.49861e-014
rhumerus 78.5889 -68.6559 -67.4766
rradius 28.9501
rwrist -1.11624
rhand -43.3148 99.2784
rfingers 7.12502
rthumb -16.1615 -231.375
lclavicle 0 3.49861e-014
lhumerus -25.7267 -8.90426 -0.633777
lradius 36.8072
lwrist 31.1082
lhand -25.5699 11.7132
lfingers 7.12502
lthumb 0.961132 41.6908
rfemur -41.4657 -16.2657 3.86426
rtibia 35.8155
rfoot 16.5992 -4.62999
rtoes -15.4
lfemur -155.866 49.5538 -114.489
ltibia -1.09812
lfoot -123.653 118.279
ltoes 8.15773
147
root 13.3234 16.1014 4.36176 -39.3329 36.548 -217.025
lowerback 23.6016 -0.263076 -13.2237
upperback 3.27174 -4.96053 -7.79167
thorax -9.2086 -2.19018 0.33122
lowerneck -10.7593 -1.22919 4.00387
upperneck -9.24748 -3.74467 -23.9399
head -1.28039 -2.33917 -8.23633
rclavicle 8.5875e-014 -3.49861e-014
rhumerus 81.5621 -67.6003 -69.4877
rradius 28.7326
rwrist -0.593932
rhand -43.1936 99.501
rfingers 7.12502
rthumb -16.0448 -231.143
lclavicle 8.5875e-014 -3.49861e-014
lhumerus -25.2517 -8.75653 -2.05053
lradius 36.7069
lwrist 31.4876
lhand -28.8188 11.7602
lfingers 7.12502
lthumb -2.17675 41.7289
rfemur -46.9904 -17.675 3.95531
rtibia 38.5961
rfoot 15.2644 -4.76819
rtoes -16.2212
lfemur -156.439 54.1429 -115.906
ltibia -1.59028e-015
lfoot -131.416 115.562
ltoes 4.4544
148
root 13.2898 16.1323 4.36462 -40.5231 34.9543 -216.908
lowerback 24.6973 -0.0967459 -12.1097
upperback 3.26411 -4.52886 -7.09446
thorax -9.8536 -1.95128 0.403071
lowerneck -10.259 -1.07681 4.19306
upperneck -9.84823 -3.70912 -24.409
head -1.53538 -2.26858 -8.42654
rclavicle 3.18055e-014 -6.36111e-015
rhumerus 81.6157 -66.301 -68.2865
rradius 28.7925
rwrist -0.810617
rhand -42.9273 100.058
rfingers 7.12502
rthumb -15.7883 -230.566
lclavicle 3.18055e-014 -6.36111e-015
lhumerus -25.0277 -9.16928 -3.36999
lradius 36.5057
lwrist 31.1861
lhand -31.2843 12.3167
lfingers 7.12502
lthumb -4.55762 42.2477
rfemur -52.3647 -18.9972 4.10222
rtibia 40.8575
rfoot 13.9178 -5.23139
rtoes -13.7884
lfemur -156.009 58.7776 -116.756
ltibia 4.77083e-014
lfoot -139.08 114.295
ltoes 1.28924
149
root 13.2463 16.1626 4.38373 -42.0344 33.2592 -216.96
lowerback 26.0423 0.110839 -10.7616
upperback 3.21253 -3.97737 -6.36581
thorax -10.6965 -1.65908 0.328469
lowerneck -9.54385 -0.960266 4.47645
upperneck -10.3944 -3.73156 -24.9399
head -1.82231 -2.21534 -8.65553
rclavicle 1.145e-013 -1.27222e-014
rhumerus 78.8984 -65.2813 -64.083
rradius 29.0488
rwrist -2.01549
rhand -42.8316 101.142
rfingers 7.12502
rthumb -15.6962 -229.475
lclavicle 1.145e-013 -1.27222e-014
lhumerus -24.3241 -9.77395 -4.76373
lradius 35.8981
lwrist 30.0609
lhand -33.157 13.1058
lfingers 7.12502
lthumb -6.36582 42.9901
rfemur -57.7336 -20.3409 4.55601
rtibia 42.8987
rfoot 12.7787 -6.11527
rtoes -13.2593
lfemur -155.667 63.5627 -117.558
ltibia -2.22639e-014
lfoot -146.983 113.933
ltoes -1.67304
150
root 13.1857 16.1928 4.41985 -44.0699 31.3515 -216.636
lowerback 27.7855 0.560333 -9.67895
upperback 3.6405 -3.1438 -5.61293
thorax -11.1748 -1.25758 0.314425
lowerneck -9.4721 -0.729661 4.63693
upperneck -11.1278 -3.59735 -25.388
head -2.0259 -2.11796 -8.85262
rclavicle 9.22361e-014 9.54166e-015
rhumerus 76.8207 -64.4608 -60.3491
rradius 29.4117
rwrist -3.49087
rhand -42.923 101.787
rfingers 7.12502
rthumb -15.7842 -228.836
lclavicle 9.22361e-014 9.54166e-015
lhumerus -23.4531 -9.71116 -6.09645
lradius 35.1339
lwrist 28.4093
lhand -34.9449 13.7242
lfingers 7.12502
lthumb -8.0916 43.5493
rfemur -62.3541 -21.3212 5.04378
rtibia 44.2542
rfoot 11.0604 -6.74423
rtoes -16.9495
lfemur -156.997 68.9486 -120.155
ltibia 2.8625e-014
lfoot -153.918 114.924
ltoes -3.47599
